<svg width="31" height="35" viewBox="0 0 31 35" fill="none" xmlns="http://www.w3.org/2000/svg">
<path d="M30.8808 13.4652C30.8805 13.2 30.7737 12.935 30.5805 12.7417L26.7793 8.94052V1.02539C26.7793 0.459102 26.3202 0 25.7539 0H5.24609C4.6798 0 4.2207 0.459102 4.2207 1.02539V8.94052L0.419512 12.7417C0.415957 12.7453 0.412949 12.7492 0.409463 12.7529C0.217305 12.9508 0.119619 13.2115 0.119209 13.4652C0.119209 13.4658 0.119141 13.4665 0.119141 13.4671V31.9238C0.119141 33.6222 1.50109 35 3.19531 35H27.8047C29.5027 35 30.8809 33.6187 30.8809 31.9238V13.4671C30.8809 13.4665 30.8808 13.4658 30.8808 13.4652ZM26.7793 11.8407L28.4054 13.4668L26.7793 15.0929V11.8407ZM6.27148 9.36558C6.27148 9.36537 6.27148 9.3651 6.27148 9.36489V2.05078H24.7285V9.36489C24.7285 9.3651 24.7285 9.36537 24.7285 9.36558V17.1436L19.1768 22.6953H11.8232L6.27148 17.1436V9.36558ZM4.2207 11.8407V15.0929L2.59464 13.4668L4.2207 11.8407ZM2.16992 31.4991V15.9423L9.94833 23.7207L2.16992 31.4991ZM3.6201 32.9492L11.8232 24.7461H19.1768L27.3799 32.9492H3.6201ZM28.8301 31.4991L21.0517 23.7207L28.8301 15.9423V31.4991Z" fill="#27A2DB"/>
</svg>
