<?xml version="1.0" encoding="UTF-8" standalone="no"?>
<svg
   xmlns:dc="http://purl.org/dc/elements/1.1/"
   xmlns:cc="http://creativecommons.org/ns#"
   xmlns:rdf="http://www.w3.org/1999/02/22-rdf-syntax-ns#"
   xmlns:svg="http://www.w3.org/2000/svg"
   xmlns="http://www.w3.org/2000/svg"
   xmlns:sodipodi="http://sodipodi.sourceforge.net/DTD/sodipodi-0.dtd"
   xmlns:inkscape="http://www.inkscape.org/namespaces/inkscape"
   width="34.700001mm"
   height="11.2mm"
   viewBox="0 0 34.7 11.2"
   version="1.1"
   id="svg8"
   sodipodi:docname="kiwiprod.svg"
   inkscape:version="1.0 (4035a4fb49, 2020-05-01)">
  <defs
     id="defs2">
    <clipPath
       clipPathUnits="userSpaceOnUse"
       id="clipPath906">
      <rect
         style="fill:#5599ff;stroke-width:0.0997601;stroke-linecap:round;stroke-linejoin:round"
         id="rect908"
         width="34.678528"
         height="11.257796"
         x="-0.033709414"
         y="-0.065886572" />
    </clipPath>
  </defs>
  <sodipodi:namedview
     id="base"
     pagecolor="#ffffff"
     bordercolor="#666666"
     borderopacity="1.0"
     inkscape:pageopacity="0.0"
     inkscape:pageshadow="2"
     inkscape:zoom="7.9195959"
     inkscape:cx="72.194687"
     inkscape:cy="26.667243"
     inkscape:document-units="mm"
     inkscape:current-layer="g896"
     inkscape:document-rotation="0"
     showgrid="false"
     showguides="true"
     inkscape:guide-bbox="true"
     inkscape:window-width="1920"
     inkscape:window-height="1027"
     inkscape:window-x="-8"
     inkscape:window-y="-8"
     inkscape:window-maximized="1"
     width="100mm"
     scale-x="1">
    <sodipodi:guide
       position="89.100977,214.24668"
       orientation="0,-1"
       id="guide885" />
  </sodipodi:namedview>
  <metadata
     id="metadata5">
    <rdf:RDF>
      <cc:Work
         rdf:about="">
        <dc:format>image/svg+xml</dc:format>
        <dc:type
           rdf:resource="http://purl.org/dc/dcmitype/StillImage" />
        <dc:title></dc:title>
      </cc:Work>
    </rdf:RDF>
  </metadata>
  <g
     inkscape:label="Layer 1"
     inkscape:groupmode="layer"
     id="layer1">
    <g
       id="g896"
       clip-path="url(#clipPath906)">
      <g
         transform="matrix(0.29624024,0,0,0.29624024,-0.24661238,0.01093356)"
         id="g844"
         style="fill:#27a2db;fill-opacity:1">
        <path
           style="fill:#27a2db;fill-opacity:1"
           d="M 7.112,12.4 4.856,14.752 V 19 H 0.992 V 2.2 h 3.864 v 7.848 L 12.296,2.2 h 4.32 L 9.656,9.688 17.024,19 H 12.488 Z M 18.2593,6.088 h 3.744 V 19 h -3.744 z m 1.872,-1.8 c -0.688,0 -1.248,-0.2 -1.68,-0.6 -0.432,-0.4 -0.648,-0.896 -0.648,-1.488 0,-0.592 0.216,-1.088 0.648,-1.488001 0.432,-0.4 0.992,-0.6 1.68,-0.6 0.688,0 1.248,0.192 1.68,0.576001 0.432,0.384 0.648,0.864 0.648,1.44 0,0.624 -0.216,1.144 -0.648,1.56 -0.432,0.4 -0.992,0.6 -1.68,0.6 z M 46.214,6.088 41.534,19 h -3.6 L 35.03,10.984 32.03,19 h -3.6 L 23.774,6.088 h 3.528 l 3.048,8.736 3.168,-8.736 h 3.168 l 3.072,8.736 3.144,-8.736 z m 1.7406,0 h 3.744 V 19 h -3.744 z m 1.872,-1.8 c -0.688,0 -1.248,-0.2 -1.68,-0.6 -0.432,-0.4 -0.648,-0.896 -0.648,-1.488 0,-0.592 0.216,-1.088 0.648,-1.488001 0.432,-0.4 0.992,-0.6 1.68,-0.6 0.688,0 1.248,0.192 1.68,0.576001 0.432,0.384 0.648,0.864 0.648,1.44 0,0.624 -0.216,1.144 -0.648,1.56 -0.432,0.4 -0.992,0.6 -1.68,0.6 z m 12.9787,1.608 c 1.2,0 2.288,0.28 3.264,0.84 0.992,0.544 1.768,1.32 2.328,2.328 0.56,0.992 0.84,2.152 0.84,3.48 0,1.328 -0.28,2.496 -0.84,3.504 -0.56,0.992 -1.336,1.768 -2.328,2.328 -0.976,0.544 -2.064,0.816 -3.264,0.816 -1.648,0 -2.944,-0.52 -3.888,-1.56 v 6.024 h -3.744 V 6.088 h 3.576 v 1.488 c 0.928,-1.12 2.28,-1.68 4.056,-1.68 z m -0.648,10.224 c 0.96,0 1.744,-0.32 2.352,-0.96 0.624,-0.656 0.936,-1.528 0.936,-2.616 0,-1.088 -0.312,-1.952 -0.936,-2.592 -0.608,-0.656 -1.392,-0.984 -2.352,-0.984 -0.96,0 -1.752,0.328 -2.376,0.984 -0.608,0.64 -0.912,1.504 -0.912,2.592 0,1.088 0.304,1.96 0.912,2.616 0.624,0.64 1.416,0.96 2.376,0.96 z M 75.3196,7.792 c 0.448,-0.624 1.048,-1.096 1.8,-1.416 0.768,-0.32 1.648,-0.48 2.64,-0.48 v 3.456 c -0.416,-0.032 -0.696,-0.048 -0.84,-0.048 -1.072,0 -1.912,0.304 -2.52,0.912 -0.608,0.592 -0.912,1.488 -0.912,2.688 V 19 h -3.744 V 6.088 h 3.576 z m 12.693,11.4 c -1.36,0 -2.584,-0.28 -3.672,-0.84 -1.072,-0.576 -1.912,-1.368 -2.52,-2.376 -0.608,-1.008 -0.912,-2.152 -0.912,-3.432 0,-1.28 0.304,-2.424 0.912,-3.432 0.608,-1.008 1.448,-1.792 2.52,-2.352 1.088,-0.576 2.312,-0.864 3.672,-0.864 1.36,0 2.576,0.288 3.648,0.864 1.072,0.56 1.912,1.344 2.52,2.352 0.608,1.008 0.912,2.152 0.912,3.432 0,1.28 -0.304,2.424 -0.912,3.432 -0.608,1.008 -1.448,1.8 -2.52,2.376 -1.072,0.56 -2.288,0.84 -3.648,0.84 z m 0,-3.072 c 0.96,0 1.744,-0.32 2.352,-0.96 0.624,-0.656 0.936,-1.528 0.936,-2.616 0,-1.088 -0.312,-1.952 -0.936,-2.592 -0.608,-0.656 -1.392,-0.984 -2.352,-0.984 -0.96,0 -1.752,0.328 -2.376,0.984 -0.624,0.64 -0.936,1.504 -0.936,2.592 0,1.088 0.312,1.96 0.936,2.616 0.624,0.64 1.416,0.96 2.376,0.96 z M 110.747,1.192 V 19 h -3.576 v -1.488 c -0.928,1.12 -2.272,1.68 -4.032,1.68 -1.216,0 -2.32,-0.272 -3.3118,-0.816 -0.976,-0.544 -1.744,-1.32 -2.304,-2.328 -0.56,-1.008 -0.84,-2.176 -0.84,-3.504 0,-1.328 0.28,-2.496 0.84,-3.504 0.56,-1.008 1.328,-1.784 2.304,-2.328 0.9918,-0.544 2.0958,-0.816 3.3118,-0.816 1.648,0 2.936,0.52 3.864,1.56 V 1.192 Z m -6.96,14.928 c 0.944,0 1.728,-0.32 2.352,-0.96 0.624,-0.656 0.936,-1.528 0.936,-2.616 0,-1.088 -0.312,-1.952 -0.936,-2.592 -0.624,-0.656 -1.408,-0.984 -2.352,-0.984 -0.96,0 -1.752,0.328 -2.376,0.984 -0.624,0.64 -0.936,1.504 -0.936,2.592 0,1.088 0.312,1.96 0.936,2.616 0.624,0.64 1.416,0.96 2.376,0.96 z"
           fill="#094a68"
           id="path833" />
      </g>
      <g
         transform="matrix(0.26458333,0,0,0.26458333,22.411873,8.0090696)"
         id="g857"
         style="fill:#27a2db;fill-opacity:1">
        <path
           style="fill:#27a2db;fill-opacity:1"
           d="m 1.91434,1.92503 c -2.204022,2.24445 -2.204022,5.88344 0,8.12787 2.20401,2.2445 5.77746,2.2445 7.98147,0 2.20399,-2.24443 2.20399,-5.88342 0,-8.12787 -2.20401,-2.244442 -5.77746,-2.244442 -7.98147,0 z"
           fill="#094a68"
           id="path846" />
      </g>
      <g
         transform="matrix(0.26458333,0,0,0.26458333,31.585434,8.0105016)"
         id="g870"
         style="fill:#27a2db;fill-opacity:1">
        <path
           style="fill:#27a2db;fill-opacity:1"
           d="m 1.8455,1.92503 c -2.204021,2.24445 -2.204021,5.88344 0,8.12787 2.20401,2.2445 5.77745,2.2445 7.98147,0 2.20403,-2.24443 2.20403,-5.88342 0,-8.12787 -2.20402,-2.244442 -5.77746,-2.244442 -7.98147,0 z"
           fill="#094a68"
           id="path859" />
      </g>
      <g
         transform="matrix(0.26458333,0,0,0.26458333,27.009036,8.0102486)"
         id="g883"
         style="fill:#27a2db;fill-opacity:1">
        <path
           style="fill:#27a2db;fill-opacity:1"
           d="m 1.77664,1.92503 c -2.204013,2.24445 -2.204013,5.88344 0,8.12787 2.20402,2.2445 5.77746,2.2445 7.98148,0 2.20398,-2.24443 2.20398,-5.88342 0,-8.12787 -2.20402,-2.244442 -5.77746,-2.244442 -7.98148,0 z"
           fill="#094a68"
           id="path872" />
      </g>
    </g>
  </g>
</svg>
