<svg width="22" height="16" viewBox="0 0 22 16" fill="none" xmlns="http://www.w3.org/2000/svg">
<path d="M21.7004 7.27665L15.1536 0.729816C14.7541 0.330377 14.1063 0.330377 13.7069 0.729816C13.3074 1.12934 13.3074 1.77698 13.7069 2.1765L18.5074 6.97705H1.02294C0.458033 6.97705 0 7.43509 0 8C0 8.56482 0.458033 9.02294 1.02294 9.02294H18.5074L13.707 13.8235C13.3075 14.223 13.3075 14.8707 13.707 15.2702C13.9067 15.4698 14.1686 15.5698 14.4304 15.5698C14.6922 15.5698 14.954 15.4698 15.1537 15.2702L21.7004 8.72334C22.0999 8.32382 22.0999 7.67617 21.7004 7.27665Z" fill="#27A2DB"/>
</svg>
